<?xml version="1.0" standalone="no"?>
<!DOCTYPE svg PUBLIC "-//W3C//DTD SVG 20010904//EN"
 "http://www.w3.org/TR/2001/REC-SVG-20010904/DTD/svg10.dtd">
<svg version="1.0" xmlns="http://www.w3.org/2000/svg"
 width="730.000000pt" height="730.000000pt" viewBox="0 0 730.000000 730.000000"
 preserveAspectRatio="xMidYMid meet">
<metadata>
Created by potrace 1.11, written by Peter Selinger 2001-2013
</metadata>
<g transform="translate(0.000000,730.000000) scale(0.100000,-0.100000)"
fill="#000000" stroke="none">
<path d="M3660 5125 l0 -195 -795 0 -795 0 0 -225 0 -225 795 0 795 0 0 -175
0 -175 -720 0 -720 0 0 -220 0 -220 720 0 720 0 0 -211 0 -211 -27 5 c-16 4
-59 13 -98 21 -266 58 -602 42 -817 -37 -208 -76 -355 -237 -408 -443 -24 -94
-27 -266 -5 -369 43 -204 195 -384 400 -474 282 -125 803 -115 1082 20 93 44
192 130 242 208 39 61 78 156 100 244 l16 68 105 -78 c152 -113 240 -184 373
-303 66 -58 131 -115 145 -127 l27 -21 148 164 c81 90 150 170 153 178 9 24
-295 284 -551 471 -65 47 -179 123 -252 168 l-133 82 3 320 2 320 438 3 437 2
0 220 0 220 -440 0 -440 0 0 175 0 175 515 0 515 0 0 225 0 225 -512 2 -513 3
-3 193 -2 192 -250 0 -250 0 0 -195z m-280 -2249 c42 -8 121 -29 175 -47 99
-34 100 -34 103 -69 6 -59 -18 -192 -45 -253 -44 -99 -121 -144 -277 -166
-211 -30 -380 9 -466 106 -44 50 -62 104 -61 186 0 138 91 219 276 247 81 12
214 10 295 -4z"/>
</g>
</svg>
